<svg xmlns="http://www.w3.org/2000/svg" width="128" height="128" viewBox="0 0 128 128">
	<title>study-tracker-favicon</title>
	<circle cx="64" cy="64" r="60" fill="#22c55e" />
	<rect x="26" y="18" width="76" height="92" rx="10" fill="#fff7f7" />
	<rect x="26" y="18" width="76" height="16" rx="10" fill="#ef4444" />
	<rect x="26" y="34" width="10" height="76" fill="#dbeafe" />
	<g fill="#93c5fd">
		<circle cx="38" cy="26" r="4" />
		<circle cx="48" cy="26" r="4" />
		<circle cx="58" cy="26" r="4" />
		<circle cx="68" cy="26" r="4" />
		<circle cx="78" cy="26" r="4" />
		<circle cx="88" cy="26" r="4" />
	</g>
	<rect x="44" y="50" width="46" height="8" rx="4" fill="#60a5fa" />
	<rect x="44" y="64" width="34" height="8" rx="4" fill="#60a5fa" />
	<g fill="#60a5fa">
		<circle cx="44" cy="82" r="3" />
		<rect x="52" y="79" width="26" height="6" rx="3" />
		<circle cx="44" cy="94" r="3" />
		<rect x="52" y="91" width="22" height="6" rx="3" />
	</g>
	<g transform="translate(68 92) rotate(-35)">
		<rect x="0" y="0" width="54" height="12" rx="6" fill="#6366f1" />
		<rect x="42" y="0" width="10" height="12" fill="#a5b4fc" />
		<polygon points="52,0 64,6 52,12" fill="#f59e0b" />
		<polygon points="64,6 68,6 64,8" fill="#1f2937" />
	</g>
</svg>